<svg width="1280" height="537" viewBox="0 0 1280 537" fill="none" xmlns="http://www.w3.org/2000/svg">
<path d="M581.317 0C581.317 0 603.253 60.5 488.746 118.611C405.582 160.815 325.913 151.438 260.104 219.5C202.578 278.995 204.321 329.405 150.422 423.5C96.5224 517.595 0 536 0 536V1.14548e-05L287.52 1.90913e-05L581.317 0Z" fill="url(#paint0_linear)" stroke="black" stroke-opacity="0.11"/>
<path d="M709.224 0C709.224 0 673.522 48.2933 788.782 61.6639C872.493 71.3747 867.059 69.065 933.301 84.7252C991.205 98.4143 991.693 108.782 1090.96 148.395C1190.22 188.007 1280 148.395 1280 148.395V0H990.589H709.224Z" fill="url(#paint1_linear)" stroke="black" stroke-opacity="0.11"/>
<defs>
<linearGradient id="paint0_linear" x1="449.306" y1="10" x2="-96.2679" y2="402.026" gradientUnits="userSpaceOnUse">
<stop stop-color="#7000FF" stop-opacity="0.53"/>
<stop offset="1" stop-color="#09FFE1"/>
</linearGradient>
<linearGradient id="paint1_linear" x1="773.455" y1="9.02399" x2="1223" y2="242.908" gradientUnits="userSpaceOnUse">
<stop stop-color="#09FFE1"/>
<stop offset="1" stop-color="#7000FF" stop-opacity="0.72"/>
</linearGradient>
</defs>
</svg>
