<svg width="1920" height="800" viewBox="0 0 1920 800" fill="none" xmlns="http://www.w3.org/2000/svg">
<path d="M871.975 0C871.975 0 904.88 90.2985 733.118 177.031C608.373 240.022 488.87 226.028 390.156 327.612C303.867 416.41 306.481 491.65 225.632 632.089C144.784 772.529 0 800 0 800V1.70967e-05L431.281 2.84945e-05L871.975 0Z" fill="url(#paint0_linear)"/>
<path d="M1914.46 0C1914.46 0 1986.7 90.2985 1609.59 177.031C1335.71 240.022 1073.33 226.028 856.603 327.612C667.152 416.41 672.892 491.65 495.385 632.089C317.878 772.529 0 800 0 800V1.70967e-05L946.894 2.84945e-05L1914.46 0Z" fill="url(#paint1_linear)"/>
<path d="M1063.84 0C1063.84 0 1010.28 72.0796 1183.17 92.0357C1308.74 106.529 1300.59 103.082 1399.95 126.456C1486.81 146.887 1487.54 162.361 1636.44 221.484C1785.33 280.607 1920 221.484 1920 221.484V0L1485.88 2.67598e-06L1063.84 0Z" fill="url(#paint2_linear)"/>
<defs>
<linearGradient id="paint0_linear" x1="673.959" y1="14.9254" x2="-141.618" y2="603.894" gradientUnits="userSpaceOnUse">
<stop stop-color="#7000FF" stop-opacity="0.53"/>
<stop offset="1" stop-color="#09FFE1"/>
</linearGradient>
<linearGradient id="paint1_linear" x1="1479.7" y1="14.9254" x2="704.357" y2="1244.25" gradientUnits="userSpaceOnUse">
<stop stop-color="#7000FF" stop-opacity="0.53"/>
<stop offset="1" stop-color="#09FFE1"/>
</linearGradient>
<linearGradient id="paint2_linear" x1="1160.18" y1="13.4686" x2="1833.07" y2="365.298" gradientUnits="userSpaceOnUse">
<stop stop-color="#09FFE1" stop-opacity="0.63"/>
<stop offset="1" stop-color="#7000FF" stop-opacity="0.72"/>
</linearGradient>
</defs>
</svg>
