<svg width="893" height="700" viewBox="0 0 893 700" fill="none" xmlns="http://www.w3.org/2000/svg">
<path fill-rule="evenodd" clip-rule="evenodd" d="M842 20H51C33.8792 20 20 33.8792 20 51V649C20 666.121 33.8792 680 51 680H842C859.121 680 873 666.121 873 649V51C873 33.8792 859.121 20 842 20ZM51 0C22.8335 0 0 22.8335 0 51V649C0 677.167 22.8335 700 51 700H842C870.167 700 893 677.167 893 649V51C893 22.8335 870.167 0 842 0H51ZM364.773 176.859H351.414V213H326.734V110.625H367.023C379.164 110.625 388.656 113.32 395.5 118.711C402.344 124.102 405.766 131.719 405.766 141.562C405.766 148.688 404.312 154.594 401.406 159.281C398.547 163.969 394.047 167.766 387.906 170.672L409.281 211.945V213H382.844L364.773 176.859ZM351.414 157.805H367.023C371.711 157.805 375.227 156.586 377.57 154.148C379.961 151.664 381.156 148.219 381.156 143.812C381.156 139.406 379.961 135.961 377.57 133.477C375.18 130.945 371.664 129.68 367.023 129.68H351.414V157.805ZM462.438 213C461.594 211.453 460.844 209.18 460.188 206.18C455.828 211.664 449.734 214.406 441.906 214.406C434.734 214.406 428.641 212.25 423.625 207.938C418.609 203.578 416.102 198.117 416.102 191.555C416.102 183.305 419.148 177.07 425.242 172.852C431.336 168.633 440.195 166.523 451.82 166.523H459.133V162.516C459.133 155.531 456.109 152.039 450.062 152.039C444.438 152.039 441.625 154.805 441.625 160.336H417.93C417.93 152.977 421.047 147 427.281 142.406C433.562 137.812 441.555 135.516 451.258 135.516C460.961 135.516 468.625 137.883 474.25 142.617C479.875 147.352 482.758 153.844 482.898 162.094V195.773C482.992 202.758 484.07 208.102 486.133 211.805V213H462.438ZM447.602 197.531C450.555 197.531 452.992 196.898 454.914 195.633C456.883 194.367 458.289 192.938 459.133 191.344V179.18H452.242C443.992 179.18 439.867 182.883 439.867 190.289C439.867 192.445 440.594 194.203 442.047 195.562C443.5 196.875 445.352 197.531 447.602 197.531ZM525.297 184.805L537.32 136.922H562.281L537.461 213H513.273L488.453 136.922H513.484L525.297 184.805ZM594.344 213H570.578V136.922H594.344V213ZM569.172 117.305C569.172 113.93 570.391 111.164 572.828 109.008C575.266 106.852 578.43 105.773 582.32 105.773C586.211 105.773 589.375 106.852 591.812 109.008C594.25 111.164 595.469 113.93 595.469 117.305C595.469 120.68 594.25 123.445 591.812 125.602C589.375 127.758 586.211 128.836 582.32 128.836C578.43 128.836 575.266 127.758 572.828 125.602C570.391 123.445 569.172 120.68 569.172 117.305ZM351.414 347.266V382H326.734V279.625H367.586C375.414 279.625 382.328 281.078 388.328 283.984C394.375 286.844 399.039 290.945 402.32 296.289C405.648 301.586 407.312 307.609 407.312 314.359C407.312 324.344 403.727 332.336 396.555 338.336C389.43 344.289 379.633 347.266 367.164 347.266H351.414ZM351.414 328.211H367.586C372.367 328.211 376 327.016 378.484 324.625C381.016 322.234 382.281 318.859 382.281 314.5C382.281 309.719 380.992 305.898 378.414 303.039C375.836 300.18 372.32 298.727 367.867 298.68H351.414V328.211ZM465.461 327.367L457.656 326.805C450.203 326.805 445.422 329.148 443.312 333.836V382H419.617V305.922H441.836L442.609 315.695C446.594 308.242 452.148 304.516 459.273 304.516C461.805 304.516 464.008 304.797 465.883 305.359L465.461 327.367ZM514.75 382C513.906 380.453 513.156 378.18 512.5 375.18C508.141 380.664 502.047 383.406 494.219 383.406C487.047 383.406 480.953 381.25 475.938 376.938C470.922 372.578 468.414 367.117 468.414 360.555C468.414 352.305 471.461 346.07 477.555 341.852C483.648 337.633 492.508 335.523 504.133 335.523H511.445V331.516C511.445 324.531 508.422 321.039 502.375 321.039C496.75 321.039 493.938 323.805 493.938 329.336H470.242C470.242 321.977 473.359 316 479.594 311.406C485.875 306.812 493.867 304.516 503.57 304.516C513.273 304.516 520.938 306.883 526.562 311.617C532.188 316.352 535.07 322.844 535.211 331.094V364.773C535.305 371.758 536.383 377.102 538.445 380.805V382H514.75ZM499.914 366.531C502.867 366.531 505.305 365.898 507.227 364.633C509.195 363.367 510.602 361.938 511.445 360.344V348.18H504.555C496.305 348.18 492.18 351.883 492.18 359.289C492.18 361.445 492.906 363.203 494.359 364.562C495.812 365.875 497.664 366.531 499.914 366.531ZM578.945 353.664L572.266 360.344V382H548.57V273.93H572.266V331.305L574.656 328.141L592.516 305.922H620.922L594.273 337.211L622.68 382H595.539L578.945 353.664ZM670 382C669.156 380.453 668.406 378.18 667.75 375.18C663.391 380.664 657.297 383.406 649.469 383.406C642.297 383.406 636.203 381.25 631.188 376.938C626.172 372.578 623.664 367.117 623.664 360.555C623.664 352.305 626.711 346.07 632.805 341.852C638.898 337.633 647.758 335.523 659.383 335.523H666.695V331.516C666.695 324.531 663.672 321.039 657.625 321.039C652 321.039 649.188 323.805 649.188 329.336H625.492C625.492 321.977 628.609 316 634.844 311.406C641.125 306.812 649.117 304.516 658.82 304.516C668.523 304.516 676.188 306.883 681.812 311.617C687.438 316.352 690.32 322.844 690.461 331.094V364.773C690.555 371.758 691.633 377.102 693.695 380.805V382H670ZM655.164 366.531C658.117 366.531 660.555 365.898 662.477 364.633C664.445 363.367 665.852 361.938 666.695 360.344V348.18H659.805C651.555 348.18 647.43 351.883 647.43 359.289C647.43 361.445 648.156 363.203 649.609 364.562C651.062 365.875 652.914 366.531 655.164 366.531ZM743.477 360.625C743.477 358.609 742.422 356.992 740.312 355.773C738.203 354.555 734.195 353.289 728.289 351.977C722.383 350.664 717.508 348.953 713.664 346.844C709.82 344.688 706.891 342.086 704.875 339.039C702.859 335.992 701.852 332.5 701.852 328.562C701.852 321.578 704.734 315.836 710.5 311.336C716.266 306.789 723.812 304.516 733.141 304.516C743.172 304.516 751.234 306.789 757.328 311.336C763.422 315.883 766.469 321.859 766.469 329.266H742.703C742.703 323.172 739.492 320.125 733.07 320.125C730.586 320.125 728.5 320.828 726.812 322.234C725.125 323.594 724.281 325.305 724.281 327.367C724.281 329.477 725.312 331.188 727.375 332.5C729.438 333.812 732.719 334.891 737.219 335.734C741.766 336.578 745.75 337.586 749.172 338.758C760.609 342.695 766.328 349.75 766.328 359.922C766.328 366.859 763.234 372.508 757.047 376.867C750.906 381.227 742.938 383.406 733.141 383.406C726.625 383.406 720.812 382.234 715.703 379.891C710.594 377.547 706.609 374.359 703.75 370.328C700.891 366.297 699.461 362.055 699.461 357.602H721.609C721.703 361.117 722.875 363.695 725.125 365.336C727.375 366.93 730.258 367.727 733.773 367.727C737.008 367.727 739.422 367.07 741.016 365.758C742.656 364.445 743.477 362.734 743.477 360.625ZM800.641 314.078C805.703 307.703 812.172 304.516 820.047 304.516C828.438 304.516 834.766 307 839.031 311.969C843.297 316.938 845.477 324.273 845.57 333.977V382H821.805V334.539C821.805 330.508 820.984 327.555 819.344 325.68C817.703 323.758 814.914 322.797 810.977 322.797C806.102 322.797 802.656 324.344 800.641 327.438V382H776.945V274H800.641V314.078ZM351.414 516.266V551H326.734V448.625H367.586C375.414 448.625 382.328 450.078 388.328 452.984C394.375 455.844 399.039 459.945 402.32 465.289C405.648 470.586 407.312 476.609 407.312 483.359C407.312 493.344 403.727 501.336 396.555 507.336C389.43 513.289 379.633 516.266 367.164 516.266H351.414ZM351.414 497.211H367.586C372.367 497.211 376 496.016 378.484 493.625C381.016 491.234 382.281 487.859 382.281 483.5C382.281 478.719 380.992 474.898 378.414 472.039C375.836 469.18 372.32 467.727 367.867 467.68H351.414V497.211ZM461.453 551C460.609 549.453 459.859 547.18 459.203 544.18C454.844 549.664 448.75 552.406 440.922 552.406C433.75 552.406 427.656 550.25 422.641 545.938C417.625 541.578 415.117 536.117 415.117 529.555C415.117 521.305 418.164 515.07 424.258 510.852C430.352 506.633 439.211 504.523 450.836 504.523H458.148V500.516C458.148 493.531 455.125 490.039 449.078 490.039C443.453 490.039 440.641 492.805 440.641 498.336H416.945C416.945 490.977 420.062 485 426.297 480.406C432.578 475.812 440.57 473.516 450.273 473.516C459.977 473.516 467.641 475.883 473.266 480.617C478.891 485.352 481.773 491.844 481.914 500.094V533.773C482.008 540.758 483.086 546.102 485.148 549.805V551H461.453ZM446.617 535.531C449.57 535.531 452.008 534.898 453.93 533.633C455.898 532.367 457.305 530.938 458.148 529.344V517.18H451.258C443.008 517.18 438.883 520.883 438.883 528.289C438.883 530.445 439.609 532.203 441.062 533.562C442.516 534.875 444.367 535.531 446.617 535.531ZM516.859 474.922L517.633 483.852C522.883 476.961 530.125 473.516 539.359 473.516C547.281 473.516 553.188 475.883 557.078 480.617C561.016 485.352 563.055 492.477 563.195 501.992V551H539.43V502.977C539.43 499.133 538.656 496.32 537.109 494.539C535.562 492.711 532.75 491.797 528.672 491.797C524.031 491.797 520.586 493.625 518.336 497.281V551H494.641V474.922H516.859ZM573.391 512.398C573.391 500.352 575.992 490.859 581.195 483.922C586.398 476.984 593.664 473.516 602.992 473.516C609.789 473.516 615.508 476.188 620.148 481.531V443H643.914V551H622.609L621.414 542.844C616.539 549.219 610.352 552.406 602.852 552.406C593.805 552.406 586.633 548.938 581.336 542C576.039 535.062 573.391 525.195 573.391 512.398ZM597.086 513.875C597.086 527.375 601.023 534.125 608.898 534.125C614.148 534.125 617.898 531.922 620.148 527.516V498.547C617.992 494.047 614.289 491.797 609.039 491.797C601.727 491.797 597.766 497.703 597.156 509.516L597.086 513.875ZM694.188 552.406C682.516 552.406 673.07 548.938 665.852 542C658.633 535.016 655.023 525.945 655.023 514.789V512.82C655.023 505.039 656.453 498.172 659.312 492.219C662.219 486.266 666.438 481.672 671.969 478.438C677.5 475.156 684.062 473.516 691.656 473.516C702.344 473.516 710.781 476.844 716.969 483.5C723.156 490.109 726.25 499.344 726.25 511.203V520.414H679.141C679.984 524.68 681.836 528.031 684.695 530.469C687.555 532.906 691.258 534.125 695.805 534.125C703.305 534.125 709.164 531.5 713.383 526.25L724.211 539.047C721.258 543.125 717.062 546.383 711.625 548.82C706.234 551.211 700.422 552.406 694.188 552.406ZM691.516 491.797C684.578 491.797 680.453 496.391 679.141 505.578H703.047V503.75C703.141 499.953 702.18 497.023 700.164 494.961C698.148 492.852 695.266 491.797 691.516 491.797ZM765.273 517.812L777.93 474.922H803.312L772.305 563.727L770.969 566.961C766.562 576.805 758.781 581.727 747.625 581.727C744.531 581.727 741.273 581.258 737.852 580.32V563.375H740.945C744.273 563.375 746.805 562.883 748.539 561.898C750.32 560.961 751.633 559.25 752.477 556.766L754.375 551.703L727.938 474.922H753.25L765.273 517.812ZM80.875 350C204.104 350 304 282.843 304 200C304 117.157 204.104 50 80.875 50C80.2494 50 79.6244 50.0017 79 50.0052V349.995C79.6244 349.998 80.2494 350 80.875 350ZM376.583 650L79 350V650H376.583Z" fill="black"/>
</svg>
